<svg id="Layer_1" data-name="Layer 1" xmlns="http://www.w3.org/2000/svg" viewBox="0 0 453.54 255.12"><defs><style>.cls-1{fill:#2a6363;stroke:#000;stroke-miterlimit:22.93;stroke-width:0.57px;}.cls-2{fill:#1a1a1a;}.cls-2,.cls-3,.cls-4,.cls-5,.cls-6{fill-rule:evenodd;}.cls-3{fill:#ff8e42;}.cls-3,.cls-4,.cls-5,.cls-6,.cls-7{opacity:0.75;}.cls-4{fill:#ff791f;}.cls-5,.cls-7{fill:#fa7923;}.cls-6{fill:#f60;}</style></defs><title>Artboard 1</title><rect class="cls-1" width="453.54" height="255.12"/><path class="cls-2" d="M230.53,116.64,220.72,120a3.37,3.37,0,0,1-1.1.23,2.57,2.57,0,0,1-1.35-.58c-.05-.08-.44,0-.67.08a9,9,0,0,0-4.56,2,3.11,3.11,0,0,0-.86,1.84v11.7c2.67,0,6.19,3.22,4.42,3.22h-9.68c-1.31,0,1.24-2.47,3-3h0v-12c0-4,4.54-5.57,7.82-6.31a2,2,0,0,1,1.21-1.21l.51-.17,9.71-3.33a2.07,2.07,0,0,1,.66-.1,2.15,2.15,0,0,1,.75,4.17Z"/><polygon class="cls-3" points="275.48 140.98 275.47 140.98 275.47 140.99 226.84 140.99 226.84 156.81 259.92 156.81 259.37 170.59 273.26 170.59 275.48 140.98"/><polygon class="cls-4" points="226.84 138.38 275.47 138.38 275.47 140.99 226.84 140.99 226.84 140.98 226.84 138.38"/><polygon class="cls-5" points="226.84 140.99 226.84 156.81 226.7 156.81 193.62 156.81 194.17 170.59 180.28 170.59 178.07 140.99 226.84 140.99"/><path class="cls-6" d="M178.07,138.38h28.51c0,.08.15.13.33.13h9.68a.55.55,0,0,0,.42-.13h9.83V141H178.07Z"/><polygon class="cls-4" points="259.92 156.81 226.84 156.81 226.84 246.8 256.33 246.8 259.92 156.81"/><polygon class="cls-3" points="226.84 246.8 269.13 246.8 269.13 253.79 226.84 253.79 226.84 247.26 226.84 246.8"/><polygon class="cls-6" points="193.62 156.81 226.84 156.81 226.84 246.8 197.22 246.8 193.62 156.81"/><rect class="cls-7" x="184.41" y="246.8" width="42.43" height="6.99"/></svg>